<?xml version="1.0" standalone="no"?>
<!DOCTYPE svg PUBLIC "-//W3C//DTD SVG 20010904//EN"
 "http://www.w3.org/TR/2001/REC-SVG-20010904/DTD/svg10.dtd">
<svg version="1.0" xmlns="http://www.w3.org/2000/svg"
 width="244.000000pt" height="203.000000pt" viewBox="0 0 244.000000 203.000000"
 preserveAspectRatio="xMidYMid meet">

<g transform="translate(0.000000,203.000000) scale(0.100000,-0.100000)"
fill="white">
<path d="M292 2020 c-57 -12 -137 -57 -169 -95 -94 -111 -109 -305 -36 -462
18 -40 59 -86 173 -195 l149 -143 -199 -230 c-110 -126 -200 -233 -200 -237 0
-5 69 -8 153 -9 83 0 416 -6 739 -12 322 -7 584 -9 582 -5 -3 4 -204 159 -447
345 -288 220 -480 374 -549 442 -104 100 -108 106 -108 146 0 50 30 100 77
128 31 18 53 18 506 11 l474 -7 31 -63 c18 -35 35 -64 39 -64 5 1 83 97 174
214 l166 213 -211 7 c-116 3 -427 8 -691 11 -264 3 -509 7 -545 9 -36 2 -84 0
-108 -4z"/>
<path d="M1417 1048 c241 -188 487 -379 547 -426 122 -95 142 -126 131 -200
-4 -30 -17 -56 -43 -84 l-36 -40 -456 6 c-250 4 -474 9 -497 12 -40 5 -42 7
-65 65 -13 32 -25 59 -28 58 -14 -1 -331 -392 -324 -398 5 -5 351 -14 769 -21
l760 -13 53 23 c66 28 144 111 167 177 23 66 30 177 16 245 -22 106 -65 172
-199 310 -84 86 -121 131 -116 140 4 7 82 112 172 233 l163 220 -68 2 c-188 7
-1210 33 -1291 33 l-94 0 439 -342z"/>
</g>
</svg>
